<mxfile host="Electron" modified="2023-07-20T13:34:05.631Z" agent="Mozilla/5.0 (X11; Linux x86_64) AppleWebKit/537.36 (KHTML, like Gecko) draw.io/21.2.1 Chrome/112.0.5615.87 Electron/24.1.2 Safari/537.36" etag="m2Q8K-skw9PN8H52nKXP" version="21.2.1" type="device">
  <diagram name="Страница 1" id="xxq7u_xmlJh97VHDZShU">
    <mxGraphModel dx="1311" dy="941" grid="1" gridSize="10" guides="1" tooltips="1" connect="1" arrows="1" fold="1" page="1" pageScale="1" pageWidth="827" pageHeight="1169" math="0" shadow="0">
      <root>
        <mxCell id="0" />
        <mxCell id="1" parent="0" />
        <mxCell id="tIAkZOhMyr8gN1wPfud8-33" value="&lt;font style=&quot;font-size: 64px;&quot;&gt;Сервер с dockerd&lt;br&gt;&lt;br&gt;&lt;br&gt;&lt;br&gt;&lt;br&gt;&lt;br&gt;&lt;br&gt;&lt;br&gt;&lt;br&gt;&lt;br&gt;&lt;/font&gt;" style="rounded=0;whiteSpace=wrap;html=1;" parent="1" vertex="1">
          <mxGeometry x="50" y="430" width="1270" height="760" as="geometry" />
        </mxCell>
        <mxCell id="tIAkZOhMyr8gN1wPfud8-32" value="" style="edgeStyle=orthogonalEdgeStyle;rounded=0;orthogonalLoop=1;jettySize=auto;html=1;" parent="1" source="tIAkZOhMyr8gN1wPfud8-1" target="tIAkZOhMyr8gN1wPfud8-2" edge="1">
          <mxGeometry relative="1" as="geometry" />
        </mxCell>
        <mxCell id="tIAkZOhMyr8gN1wPfud8-1" value="&lt;font style=&quot;&quot;&gt;&lt;span style=&quot;font-size: 36px;&quot;&gt;init-certs&lt;/span&gt;&lt;br&gt;&lt;font style=&quot;font-size: 24px;&quot;&gt;(сontainer1)&lt;/font&gt;&lt;br&gt;&lt;/font&gt;" style="rounded=0;whiteSpace=wrap;html=1;" parent="1" vertex="1">
          <mxGeometry x="90" y="540" width="270" height="100" as="geometry" />
        </mxCell>
        <mxCell id="tIAkZOhMyr8gN1wPfud8-2" value="&lt;font style=&quot;&quot;&gt;&lt;span style=&quot;font-size: 36px;&quot;&gt;master&lt;/span&gt;&lt;br&gt;&lt;font style=&quot;font-size: 24px;&quot;&gt;(сontainer2)&lt;/font&gt;&lt;br&gt;&lt;/font&gt;" style="rounded=0;whiteSpace=wrap;html=1;" parent="1" vertex="1">
          <mxGeometry x="90" y="700" width="270" height="100" as="geometry" />
        </mxCell>
        <mxCell id="tIAkZOhMyr8gN1wPfud8-3" value="&lt;font style=&quot;&quot;&gt;&lt;span style=&quot;font-size: 36px;&quot;&gt;node1&lt;/span&gt;&lt;br&gt;&lt;font style=&quot;font-size: 24px;&quot;&gt;(сontainer3)&lt;/font&gt;&lt;br&gt;&lt;/font&gt;" style="rounded=0;whiteSpace=wrap;html=1;" parent="1" vertex="1">
          <mxGeometry x="90" y="880" width="270" height="100" as="geometry" />
        </mxCell>
        <mxCell id="tIAkZOhMyr8gN1wPfud8-4" value="&lt;font style=&quot;&quot;&gt;&lt;span style=&quot;font-size: 36px;&quot;&gt;node2&lt;/span&gt;&lt;br&gt;&lt;font style=&quot;font-size: 24px;&quot;&gt;(сontainer4)&lt;/font&gt;&lt;br&gt;&lt;/font&gt;" style="rounded=0;whiteSpace=wrap;html=1;" parent="1" vertex="1">
          <mxGeometry x="90" y="1040" width="270" height="100" as="geometry" />
        </mxCell>
        <mxCell id="tIAkZOhMyr8gN1wPfud8-5" value="&lt;font style=&quot;&quot;&gt;&lt;span style=&quot;font-size: 36px;&quot;&gt;tls-master&lt;/span&gt;&lt;br&gt;&lt;font style=&quot;font-size: 24px;&quot;&gt;(volume1)&lt;/font&gt;&lt;br&gt;&lt;/font&gt;" style="shape=cylinder3;whiteSpace=wrap;html=1;boundedLbl=1;backgroundOutline=1;size=15;" parent="1" vertex="1">
          <mxGeometry x="610" y="690" width="250" height="120" as="geometry" />
        </mxCell>
        <mxCell id="tIAkZOhMyr8gN1wPfud8-6" value="&lt;font style=&quot;&quot;&gt;&lt;span style=&quot;font-size: 36px;&quot;&gt;tls-node1&lt;/span&gt;&lt;br&gt;&lt;font style=&quot;font-size: 24px;&quot;&gt;(volume2)&lt;/font&gt;&lt;br&gt;&lt;/font&gt;" style="shape=cylinder3;whiteSpace=wrap;html=1;boundedLbl=1;backgroundOutline=1;size=15;" parent="1" vertex="1">
          <mxGeometry x="610" y="870" width="250" height="120" as="geometry" />
        </mxCell>
        <mxCell id="tIAkZOhMyr8gN1wPfud8-8" value="&lt;font style=&quot;&quot;&gt;&lt;span style=&quot;font-size: 36px;&quot;&gt;tls-node2&lt;/span&gt;&lt;br&gt;&lt;font style=&quot;font-size: 24px;&quot;&gt;(volume3)&lt;/font&gt;&lt;br&gt;&lt;/font&gt;" style="shape=cylinder3;whiteSpace=wrap;html=1;boundedLbl=1;backgroundOutline=1;size=15;" parent="1" vertex="1">
          <mxGeometry x="610" y="1030" width="250" height="120" as="geometry" />
        </mxCell>
        <mxCell id="tIAkZOhMyr8gN1wPfud8-16" value="" style="shape=flexArrow;endArrow=classic;html=1;rounded=0;entryX=0;entryY=0.5;entryDx=0;entryDy=0;entryPerimeter=0;exitX=1;exitY=0.5;exitDx=0;exitDy=0;" parent="1" source="tIAkZOhMyr8gN1wPfud8-1" target="tIAkZOhMyr8gN1wPfud8-5" edge="1">
          <mxGeometry width="50" height="50" relative="1" as="geometry">
            <mxPoint x="390" y="590" as="sourcePoint" />
            <mxPoint x="440" y="540" as="targetPoint" />
          </mxGeometry>
        </mxCell>
        <mxCell id="tIAkZOhMyr8gN1wPfud8-18" value="" style="shape=flexArrow;endArrow=classic;html=1;rounded=0;entryX=-0.005;entryY=0.561;entryDx=0;entryDy=0;entryPerimeter=0;exitX=0.998;exitY=0.566;exitDx=0;exitDy=0;exitPerimeter=0;" parent="1" source="tIAkZOhMyr8gN1wPfud8-1" target="tIAkZOhMyr8gN1wPfud8-6" edge="1">
          <mxGeometry width="50" height="50" relative="1" as="geometry">
            <mxPoint x="370" y="600" as="sourcePoint" />
            <mxPoint x="810" y="760" as="targetPoint" />
          </mxGeometry>
        </mxCell>
        <mxCell id="tIAkZOhMyr8gN1wPfud8-19" value="" style="shape=flexArrow;endArrow=classic;html=1;rounded=0;entryX=-0.005;entryY=0.586;entryDx=0;entryDy=0;entryPerimeter=0;" parent="1" target="tIAkZOhMyr8gN1wPfud8-8" edge="1">
          <mxGeometry width="50" height="50" relative="1" as="geometry">
            <mxPoint x="360" y="590" as="sourcePoint" />
            <mxPoint x="810" y="963" as="targetPoint" />
          </mxGeometry>
        </mxCell>
        <mxCell id="tIAkZOhMyr8gN1wPfud8-20" value="" style="shape=flexArrow;endArrow=classic;html=1;rounded=0;entryX=1;entryY=0.5;entryDx=0;entryDy=0;exitX=-0.014;exitY=0.549;exitDx=0;exitDy=0;exitPerimeter=0;" parent="1" source="tIAkZOhMyr8gN1wPfud8-5" target="tIAkZOhMyr8gN1wPfud8-2" edge="1">
          <mxGeometry width="50" height="50" relative="1" as="geometry">
            <mxPoint x="500" y="860" as="sourcePoint" />
            <mxPoint x="550" y="810" as="targetPoint" />
          </mxGeometry>
        </mxCell>
        <mxCell id="tIAkZOhMyr8gN1wPfud8-21" value="" style="shape=flexArrow;endArrow=classic;html=1;rounded=0;entryX=1;entryY=0.5;entryDx=0;entryDy=0;exitX=0;exitY=0.5;exitDx=0;exitDy=0;exitPerimeter=0;" parent="1" source="tIAkZOhMyr8gN1wPfud8-6" target="tIAkZOhMyr8gN1wPfud8-3" edge="1">
          <mxGeometry width="50" height="50" relative="1" as="geometry">
            <mxPoint x="800" y="940" as="sourcePoint" />
            <mxPoint x="370" y="760" as="targetPoint" />
          </mxGeometry>
        </mxCell>
        <mxCell id="tIAkZOhMyr8gN1wPfud8-22" value="" style="shape=flexArrow;endArrow=classic;html=1;rounded=0;entryX=1.006;entryY=0.581;entryDx=0;entryDy=0;entryPerimeter=0;" parent="1" target="tIAkZOhMyr8gN1wPfud8-4" edge="1">
          <mxGeometry width="50" height="50" relative="1" as="geometry">
            <mxPoint x="610" y="1100" as="sourcePoint" />
            <mxPoint x="370" y="940" as="targetPoint" />
          </mxGeometry>
        </mxCell>
        <mxCell id="tIAkZOhMyr8gN1wPfud8-24" value="&lt;div style=&quot;font-size: 24px;&quot;&gt;&lt;b&gt;Master&lt;/b&gt;&lt;/div&gt;&lt;div style=&quot;font-size: 24px;&quot;&gt;&lt;br&gt;&lt;/div&gt;&lt;div style=&quot;font-size: 24px;&quot;&gt;&lt;br&gt;&lt;/div&gt;&lt;div style=&quot;font-size: 24px;&quot;&gt;&lt;br&gt;&lt;/div&gt;&lt;div style=&quot;font-size: 24px;&quot;&gt;&lt;br&gt;&lt;/div&gt;&lt;div style=&quot;font-size: 24px;&quot;&gt;&lt;br&gt;&lt;/div&gt;&lt;div style=&quot;font-size: 24px;&quot;&gt;&lt;br&gt;&lt;/div&gt;&lt;div style=&quot;font-size: 24px;&quot;&gt;&lt;br&gt;&lt;/div&gt;&lt;div style=&quot;font-size: 24px;&quot;&gt;&lt;br&gt;&lt;/div&gt;&lt;div style=&quot;font-size: 24px;&quot;&gt;&lt;br&gt;&lt;/div&gt;&lt;div style=&quot;font-size: 24px;&quot;&gt;&lt;br&gt;&lt;/div&gt;" style="rounded=0;whiteSpace=wrap;html=1;" parent="1" vertex="1">
          <mxGeometry x="940" y="530" width="300" height="330" as="geometry" />
        </mxCell>
        <mxCell id="tIAkZOhMyr8gN1wPfud8-25" value="&lt;font face=&quot;Courier New&quot; style=&quot;font-size: 18px;&quot;&gt;&lt;div style=&quot;&quot;&gt;&lt;div&gt;systemd&lt;/div&gt;&lt;div&gt;&amp;nbsp; ├─nsenter (user)&lt;br&gt;&amp;nbsp; │&amp;nbsp; &amp;nbsp; &amp;nbsp; ├&lt;span style=&quot;background-color: initial;&quot;&gt;─kubelet&lt;/span&gt;&lt;/div&gt;&lt;div style=&quot;border-color: var(--border-color);&quot;&gt;&amp;nbsp;&amp;nbsp;│&lt;span style=&quot;background-color: initial;&quot;&gt;&amp;nbsp; &amp;nbsp; &amp;nbsp; ├─coredns&lt;/span&gt;&lt;/div&gt;&lt;div style=&quot;border-color: var(--border-color);&quot;&gt;&amp;nbsp; │&amp;nbsp; &amp;nbsp; &amp;nbsp; ├─kube-controller&lt;/div&gt;&lt;div style=&quot;border-color: var(--border-color);&quot;&gt;&amp;nbsp; │ &amp;nbsp; &amp;nbsp; &amp;nbsp;├─kube-apiserver&lt;/div&gt;&lt;div style=&quot;border-color: var(--border-color);&quot;&gt;&amp;nbsp; │&amp;nbsp; &amp;nbsp; &amp;nbsp; ├─kube-scheduler&lt;/div&gt;&lt;div style=&quot;border-color: var(--border-color);&quot;&gt;&amp;nbsp; │&amp;nbsp; &amp;nbsp; &amp;nbsp; ├─etcd&lt;/div&gt;&lt;div style=&quot;border-color: var(--border-color);&quot;&gt;&amp;nbsp; │&amp;nbsp; &amp;nbsp; &amp;nbsp; ├─kube-proxy&lt;/div&gt;&lt;div&gt;&amp;nbsp; │&amp;nbsp; &amp;nbsp; &amp;nbsp; └&lt;span style=&quot;background-color: initial;&quot;&gt;─flanneld&lt;/span&gt;&lt;/div&gt;&lt;div&gt;&amp;nbsp; └─rootlesskit (user)&lt;/div&gt;&lt;div&gt;&amp;nbsp; &amp;nbsp; &amp;nbsp; └─exe&lt;/div&gt;&lt;div&gt;&amp;nbsp; &amp;nbsp; &amp;nbsp; &amp;nbsp; &amp;nbsp; └─crio&lt;/div&gt;&lt;/div&gt;&lt;/font&gt;" style="text;html=1;strokeColor=none;fillColor=none;align=left;verticalAlign=middle;whiteSpace=wrap;rounded=0;" parent="1" vertex="1">
          <mxGeometry x="970" y="570" width="261" height="280" as="geometry" />
        </mxCell>
        <mxCell id="tIAkZOhMyr8gN1wPfud8-26" value="&lt;div style=&quot;font-size: 24px;&quot;&gt;&lt;b&gt;Worker&amp;nbsp;&lt;br&gt;&lt;/b&gt;&lt;span style=&quot;background-color: initial;&quot;&gt;(node1, node2)&lt;/span&gt;&lt;/div&gt;&lt;div style=&quot;font-size: 24px;&quot;&gt;&lt;br&gt;&lt;/div&gt;&lt;div style=&quot;font-size: 24px;&quot;&gt;&lt;br&gt;&lt;/div&gt;&lt;div style=&quot;font-size: 24px;&quot;&gt;&lt;br&gt;&lt;/div&gt;&lt;div style=&quot;font-size: 24px;&quot;&gt;&lt;br&gt;&lt;/div&gt;&lt;div style=&quot;font-size: 24px;&quot;&gt;&lt;br&gt;&lt;/div&gt;&lt;div style=&quot;font-size: 24px;&quot;&gt;&lt;br&gt;&lt;/div&gt;&lt;div style=&quot;font-size: 24px;&quot;&gt;&lt;br&gt;&lt;/div&gt;" style="rounded=0;whiteSpace=wrap;html=1;" parent="1" vertex="1">
          <mxGeometry x="940" y="870" width="300" height="260" as="geometry" />
        </mxCell>
        <mxCell id="tIAkZOhMyr8gN1wPfud8-27" value="&lt;font face=&quot;Courier New&quot; style=&quot;font-size: 18px;&quot;&gt;&lt;div style=&quot;&quot;&gt;&lt;div&gt;systemd&lt;/div&gt;&lt;div&gt;&amp;nbsp; ├─nsenter (user)&lt;br&gt;&lt;div style=&quot;border-color: var(--border-color);&quot;&gt;&amp;nbsp; │&amp;nbsp; &amp;nbsp; &amp;nbsp; ├─kubelet&lt;/div&gt;&lt;/div&gt;&lt;div&gt;&lt;span style=&quot;border-color: var(--border-color); background-color: initial;&quot;&gt;&lt;div style=&quot;border-color: var(--border-color);&quot;&gt;&amp;nbsp; │&amp;nbsp; &amp;nbsp; &amp;nbsp; ├─kube-proxy&lt;/div&gt;&lt;div style=&quot;border-color: var(--border-color);&quot;&gt;&amp;nbsp; │&amp;nbsp; &amp;nbsp; &amp;nbsp; ├─flanneld&lt;/div&gt;&lt;/span&gt;&lt;/div&gt;&lt;div&gt;&amp;nbsp; └─rootlesskit (user)&lt;/div&gt;&lt;div&gt;&amp;nbsp; &amp;nbsp; &amp;nbsp; └─exe&lt;/div&gt;&lt;div&gt;&amp;nbsp; &amp;nbsp; &amp;nbsp; &amp;nbsp; &amp;nbsp; └─crio&lt;/div&gt;&lt;/div&gt;&lt;/font&gt;" style="text;html=1;strokeColor=none;fillColor=none;align=left;verticalAlign=middle;whiteSpace=wrap;rounded=0;" parent="1" vertex="1">
          <mxGeometry x="980" y="950" width="215" height="161" as="geometry" />
        </mxCell>
      </root>
    </mxGraphModel>
  </diagram>
</mxfile>
